<svg width="40" height="28" viewBox="0 0 40 28" fill="none" xmlns="http://www.w3.org/2000/svg">
<path d="M39.25 13.8796C39.25 13.785 39.25 13.6776 39.2457 13.553C39.2414 13.2049 39.2328 12.8139 39.2242 12.3971C39.1898 11.1983 39.1297 10.0038 39.0352 8.87799C38.9062 7.32682 38.7172 6.03346 38.4594 5.06237C38.1873 4.04895 37.654 3.12469 36.9128 2.38196C36.1716 1.63924 35.2484 1.10407 34.2355 0.829947C33.0195 0.503384 30.6391 0.301431 27.2875 0.176822C25.6934 0.116666 23.9875 0.0779935 22.2816 0.0565091C21.6844 0.0479154 21.1301 0.0436188 20.6316 0.0393219H19.3684C18.8699 0.0436188 18.3156 0.0479154 17.7184 0.0565091C16.0125 0.0779935 14.3066 0.116666 12.7125 0.176822C9.36094 0.305728 6.97617 0.507681 5.76445 0.829947C4.75125 1.1034 3.82772 1.63834 3.0864 2.38117C2.34508 3.124 1.81202 4.04862 1.54063 5.06237C1.27852 6.03346 1.09375 7.32682 0.964844 8.87799C0.870312 10.0038 0.810156 11.1983 0.775781 12.3971C0.762891 12.8139 0.758594 13.2049 0.754297 13.553C0.754297 13.6776 0.75 13.785 0.75 13.8796V14.1202C0.75 14.2147 0.75 14.3221 0.754297 14.4467C0.758594 14.7948 0.767187 15.1858 0.775781 15.6026C0.810156 16.8014 0.870312 17.996 0.964844 19.1217C1.09375 20.6729 1.28281 21.9663 1.54063 22.9374C2.09063 24.9956 3.70625 26.6198 5.76445 27.1698C6.97617 27.4964 9.36094 27.6983 12.7125 27.8229C14.3066 27.8831 16.0125 27.9217 17.7184 27.9432C18.3156 27.9518 18.8699 27.9561 19.3684 27.9604H20.6316C21.1301 27.9561 21.6844 27.9518 22.2816 27.9432C23.9875 27.9217 25.6934 27.8831 27.2875 27.8229C30.6391 27.694 33.0238 27.4921 34.2355 27.1698C36.2937 26.6198 37.9094 24.9999 38.4594 22.9374C38.7215 21.9663 38.9062 20.6729 39.0352 19.1217C39.1297 17.996 39.1898 16.8014 39.2242 15.6026C39.2371 15.1858 39.2414 14.7948 39.2457 14.4467C39.2457 14.3221 39.25 14.2147 39.25 14.1202V13.8796V13.8796ZM36.1562 14.103C36.1562 14.1932 36.1563 14.2921 36.152 14.4081C36.1477 14.7432 36.1391 15.1128 36.1305 15.5124C36.1004 16.6553 36.0402 17.7983 35.95 18.8596C35.834 20.2432 35.6707 21.3776 35.4688 22.1382C35.2023 23.1307 34.4203 23.9171 33.432 24.1792C32.5297 24.4198 30.2566 24.6131 27.1672 24.7292C25.6031 24.7893 23.9187 24.828 22.2387 24.8495C21.65 24.8581 21.1043 24.8624 20.6145 24.8624H19.3855L17.7613 24.8495C16.0812 24.828 14.4012 24.7893 12.8328 24.7292C9.74336 24.6089 7.46602 24.4198 6.56797 24.1792C5.57969 23.9128 4.79766 23.1307 4.53125 22.1382C4.3293 21.3776 4.16602 20.2432 4.05 18.8596C3.95977 17.7983 3.90391 16.6553 3.86953 15.5124C3.85664 15.1128 3.85234 14.7389 3.84805 14.4081C3.84805 14.2921 3.84375 14.1889 3.84375 14.103V13.8967C3.84375 13.8065 3.84375 13.7077 3.84805 13.5917C3.85234 13.2565 3.86094 12.887 3.86953 12.4874C3.89961 11.3444 3.95977 10.2014 4.05 9.1401C4.16602 7.75651 4.3293 6.62213 4.53125 5.86159C4.79766 4.86901 5.57969 4.08268 6.56797 3.82057C7.47031 3.57995 9.74336 3.38659 12.8328 3.27057C14.3969 3.21041 16.0812 3.17174 17.7613 3.15026C18.35 3.14167 18.8957 3.13737 19.3855 3.13737H20.6145L22.2387 3.15026C23.9187 3.17174 25.5988 3.21041 27.1672 3.27057C30.2566 3.39088 32.534 3.57995 33.432 3.82057C34.4203 4.08698 35.2023 4.86901 35.4688 5.86159C35.6707 6.62213 35.834 7.75651 35.95 9.1401C36.0402 10.2014 36.0961 11.3444 36.1305 12.4874C36.1434 12.887 36.1477 13.2608 36.152 13.5917C36.152 13.7077 36.1562 13.8108 36.1562 13.8967V14.103ZM16.1758 19.7577L26.1445 13.9569L16.1758 8.24206V19.7577Z" fill="#FF001E"/>
</svg>
