<svg width="33" height="33" viewBox="0 0 33 33" fill="none" xmlns="http://www.w3.org/2000/svg">
<path fill-rule="evenodd" clip-rule="evenodd" d="M27.4508 4.89977C25.9822 3.42148 24.2348 2.2493 22.3099 1.45115C20.385 0.653006 18.3209 0.244755 16.2371 0.250051C7.49928 0.250051 0.386099 7.36149 0.382567 16.1029C0.382567 18.8966 1.1119 21.6232 2.49815 24.0284L0.250122 32.2418L8.6542 30.0362C10.9789 31.3016 13.5833 31.9652 16.2301 31.9663H16.2371C24.9732 31.9663 32.0864 24.8549 32.0899 16.1135C32.0959 14.0305 31.689 11.967 30.8927 10.0423C30.0965 8.11754 28.9266 6.36969 27.4508 4.89977ZM16.2371 29.2909H16.2318C13.8717 29.2912 11.555 28.6562 9.5248 27.4526L9.04447 27.1665L4.05747 28.4751L5.38722 23.6134L5.07465 23.1154C3.75513 21.0147 3.0566 18.5837 3.05972 16.1029C3.06325 8.83782 8.97383 2.92722 16.2424 2.92722C17.9735 2.92337 19.6881 3.26289 21.2871 3.92612C22.886 4.58936 24.3376 5.56313 25.5577 6.79109C26.7844 8.0132 27.7566 9.46631 28.4183 11.0664C29.08 12.6666 29.418 14.382 29.4127 16.1135C29.4092 23.3786 23.4986 29.2909 16.2371 29.2909ZM23.4651 19.4211C23.0677 19.2215 21.1217 18.2644 20.7579 18.132C20.3959 17.9995 20.1328 17.9342 19.8679 18.3297C19.603 18.7253 18.8436 19.6171 18.6123 19.882C18.381 20.1469 18.1496 20.1787 17.7541 19.9809C17.3585 19.7831 16.0817 19.3646 14.5683 18.0154C13.3904 16.9647 12.5958 15.6685 12.3644 15.2711C12.1331 14.8738 12.3397 14.6601 12.5393 14.4623C12.7176 14.2857 12.9348 13.9997 13.1326 13.7683C13.3304 13.537 13.3957 13.3728 13.5282 13.1079C13.6606 12.843 13.5953 12.6116 13.4946 12.4138C13.3957 12.2143 12.6028 10.2647 12.2726 9.47179C11.953 8.70361 11.6263 8.80603 11.3826 8.79544C11.1302 8.78511 10.8776 8.7804 10.625 8.78131C10.4241 8.78643 10.2265 8.83299 10.0444 8.91808C9.86242 9.00316 9.69994 9.12494 9.56719 9.27577C9.2034 9.67311 8.18093 10.6302 8.18093 12.5798C8.18093 14.5294 9.60074 16.4137 9.79852 16.6786C9.99631 16.9435 12.5922 20.9433 16.5656 22.6598C17.5121 23.0678 18.2503 23.3115 18.8242 23.4951C19.7725 23.7971 20.6361 23.753 21.3195 23.6523C22.0806 23.5393 23.6629 22.6952 23.9931 21.7698C24.3233 20.8444 24.3233 20.0515 24.2244 19.8855C24.1255 19.7195 23.8589 19.6189 23.4651 19.4211Z" fill="#FF001E"/>
</svg>
