<svg width="44" height="44" viewBox="0 0 44 44" fill="none" xmlns="http://www.w3.org/2000/svg">
<path d="M41.25 21.8795C41.25 21.785 41.25 21.6776 41.2457 21.553C41.2414 21.2049 41.2328 20.8139 41.2242 20.3971C41.1898 19.1983 41.1297 18.0038 41.0352 16.878C40.9062 15.3268 40.7172 14.0334 40.4594 13.0624C40.1873 12.0489 39.654 11.1247 38.9128 10.3819C38.1716 9.63922 37.2484 9.10406 36.2355 8.82993C35.0195 8.50337 32.6391 8.30142 29.2875 8.17681C27.6934 8.11665 25.9875 8.07798 24.2816 8.05649C23.6844 8.0479 23.1301 8.0436 22.6316 8.03931H21.3684C20.8699 8.0436 20.3156 8.0479 19.7184 8.05649C18.0125 8.07798 16.3066 8.11665 14.7125 8.17681C11.3609 8.30571 8.97617 8.50767 7.76445 8.82993C6.75125 9.10338 5.82772 9.63833 5.0864 10.3812C4.34508 11.124 3.81202 12.0486 3.54063 13.0624C3.27852 14.0334 3.09375 15.3268 2.96484 16.878C2.87031 18.0038 2.81016 19.1983 2.77578 20.3971C2.76289 20.8139 2.75859 21.2049 2.7543 21.553C2.7543 21.6776 2.75 21.785 2.75 21.8795V22.1202C2.75 22.2147 2.75 22.3221 2.7543 22.4467C2.75859 22.7948 2.76719 23.1858 2.77578 23.6026C2.81016 24.8014 2.87031 25.9959 2.96484 27.1217C3.09375 28.6729 3.28281 29.9663 3.54063 30.9374C4.09063 32.9956 5.70625 34.6198 7.76445 35.1698C8.97617 35.4963 11.3609 35.6983 14.7125 35.8229C16.3066 35.8831 18.0125 35.9217 19.7184 35.9432C20.3156 35.9518 20.8699 35.9561 21.3684 35.9604H22.6316C23.1301 35.9561 23.6844 35.9518 24.2816 35.9432C25.9875 35.9217 27.6934 35.8831 29.2875 35.8229C32.6391 35.694 35.0238 35.492 36.2355 35.1698C38.2938 34.6198 39.9094 32.9999 40.4594 30.9374C40.7215 29.9663 40.9062 28.6729 41.0352 27.1217C41.1297 25.9959 41.1898 24.8014 41.2242 23.6026C41.2371 23.1858 41.2414 22.7948 41.2457 22.4467C41.2457 22.3221 41.25 22.2147 41.25 22.1202V21.8795ZM38.1562 22.103C38.1562 22.1932 38.1562 22.292 38.152 22.4081C38.1477 22.7432 38.1391 23.1127 38.1305 23.5124C38.1004 24.6553 38.0402 25.7983 37.95 26.8596C37.834 28.2432 37.6707 29.3776 37.4688 30.1381C37.2023 31.1307 36.4203 31.917 35.432 32.1792C34.5297 32.4198 32.2566 32.6131 29.1672 32.7291C27.6031 32.7893 25.9187 32.828 24.2387 32.8495C23.65 32.8581 23.1043 32.8624 22.6145 32.8624H21.3855L19.7613 32.8495C18.0813 32.828 16.4012 32.7893 14.8328 32.7291C11.7434 32.6088 9.46602 32.4198 8.56797 32.1792C7.57969 31.9127 6.79766 31.1307 6.53125 30.1381C6.3293 29.3776 6.16602 28.2432 6.05 26.8596C5.95977 25.7983 5.90391 24.6553 5.86953 23.5124C5.85664 23.1127 5.85234 22.7389 5.84805 22.4081C5.84805 22.292 5.84375 22.1889 5.84375 22.103V21.8967C5.84375 21.8065 5.84375 21.7077 5.84805 21.5917C5.85234 21.2565 5.86094 20.887 5.86953 20.4874C5.89961 19.3444 5.95977 18.2014 6.05 17.1401C6.16602 15.7565 6.3293 14.6221 6.53125 13.8616C6.79766 12.869 7.57969 12.0827 8.56797 11.8206C9.47031 11.5799 11.7434 11.3866 14.8328 11.2706C16.3969 11.2104 18.0813 11.1717 19.7613 11.1502C20.35 11.1417 20.8957 11.1374 21.3855 11.1374H22.6145L24.2387 11.1502C25.9187 11.1717 27.5988 11.2104 29.1672 11.2706C32.2566 11.3909 34.534 11.5799 35.432 11.8206C36.4203 12.087 37.2023 12.869 37.4688 13.8616C37.6707 14.6221 37.834 15.7565 37.95 17.1401C38.0402 18.2014 38.0961 19.3444 38.1305 20.4874C38.1434 20.887 38.1477 21.2608 38.152 21.5917C38.152 21.7077 38.1562 21.8108 38.1562 21.8967V22.103ZM18.1758 27.7577L28.1445 21.9569L18.1758 16.242V27.7577Z" fill="#FF001E"/>
</svg>
